<svg xmlns="http://www.w3.org/2000/svg" viewBox="0 0 24 24" fill="none">
  <defs>
    <linearGradient id="accent" x1="0" y1="0" x2="1" y2="1">
      <stop offset="0%" stop-color="#a855f7"/>
      <stop offset="100%" stop-color="#6366f1"/>
    </linearGradient>
  </defs>
  <rect width="24" height="24" rx="5" fill="url(#accent)"/>
  <path d="M12 2C8 6.5 5 10.5 5 14.5a7 7 0 0 0 14 0c0-4-3-8-7-12.5z" stroke="white" stroke-width="2" stroke-linecap="round" stroke-linejoin="round"/>
  <path d="M12 6.5c-2.5 3-4.5 5.5-4.5 8a4.5 4.5 0 0 0 9 0c0-2.5-2-5-4.5-8z" stroke="white" stroke-width="2" stroke-linecap="round" stroke-linejoin="round"/>
  <path d="M12 11a3.5 3.5 0 0 0-3.5 3.5 3.5 3.5 0 0 0 7 0A3.5 3.5 0 0 0 12 11z" stroke="white" stroke-width="2" stroke-linecap="round" stroke-linejoin="round"/>
</svg>
